<?xml version="1.0" encoding="iso-8859-1"?>
<!-- Generator: Adobe Illustrator 19.0.0, SVG Export Plug-In . SVG Version: 6.00 Build 0)  -->
<svg version="1.1" id="Capa_1" xmlns="http://www.w3.org/2000/svg" xmlns:xlink="http://www.w3.org/1999/xlink" x="0px" y="0px"
	 viewBox="0 0 512.012 512.012" style="enable-background:new 0 0 512.012 512.012;" xml:space="preserve">
<g transform="translate(0 -1)">
	<g transform="translate(1 2)">
		<polygon style="fill:#558B30;" points="323.274,502.479 16.074,502.479 156.874,236.495 161.141,228.473 169.674,212.345 
			178.208,228.473 		"/>
		<polygon style="fill:#8BC34A;" points="297.674,502.479 16.074,502.479 156.874,236.495 		"/>
		<polygon style="fill:#2E7D32;" points="493.941,502.479 323.274,502.479 169.674,212.345 336.074,212.345 		"/>
		<polygon style="fill:#4CAF50;" points="468.341,502.479 323.274,502.479 169.674,212.345 310.474,212.345 		"/>
		<polygon style="fill:#CFD8DC;" points="374.474,374.479 323.274,280.612 255.008,280.612 306.208,374.479 		"/>
		<path style="fill:#FFEB3A;" d="M502.474,118.479c-0.004,42.414-34.386,76.796-76.8,76.8c-10.263,0.02-20.423-2.041-29.867-6.059
			c28.443-12.001,46.933-39.87,46.933-70.741s-18.49-58.741-46.933-70.741c9.444-4.017,19.604-6.078,29.867-6.059
			C468.088,41.682,502.471,76.065,502.474,118.479z"/>
		<path style="fill:#FFFFFF;" d="M212.341,84.345h-5.865c8.572-20.536,4.034-44.208-11.524-60.119S155.83,3.248,135.107,11.357
			s-34.591,27.822-35.219,50.067C96.242,47.721,85.32,37.156,71.504,33.966c-13.816-3.19-28.264,1.518-37.549,12.235
			S22.07,71.889,27.196,85.109c-12.624,2.999-20.999,14.979-19.48,27.864s12.45,22.59,25.425,22.572h179.2
			c14.138,0,25.6-11.462,25.6-25.6S226.479,84.345,212.341,84.345z"/>
		<path style="fill:#CFD8DC;" d="M237.941,109.945c0.009,6.792-2.685,13.309-7.488,18.112c-4.803,4.803-11.32,7.497-18.112,7.488
			h-25.6c14.138,0,25.6-11.462,25.6-25.6s-11.462-25.6-25.6-25.6h-5.888c6.253-15.005,5.607-31.998-1.768-46.485
			c-7.375-14.487-20.735-25.007-36.547-28.779c4.159-1.03,8.43-1.546,12.715-1.536c18.545,0,35.864,9.269,46.151,24.699
			c10.287,15.431,12.182,34.982,5.049,52.101h5.888c6.792-0.009,13.309,2.685,18.112,7.488
			C235.256,96.636,237.95,103.153,237.941,109.945z"/>
	</g>
	<g>
		<path d="M503.474,495.945h-3.465L344.566,210.266c-0.217-0.299-0.454-0.582-0.711-0.848c-0.336-0.503-0.725-0.968-1.161-1.387
			c-0.407-0.336-0.845-0.631-1.309-0.883l-0.044-0.03v-9.84c0-4.713-3.821-8.533-8.533-8.533s-8.533,3.821-8.533,8.533v8.533
			H179.208v-8.533c0-4.713-3.821-8.533-8.533-8.533s-8.533,3.821-8.533,8.533v14.948L11.937,495.945H8.541
			c-4.713,0-8.533,3.82-8.533,8.533s3.821,8.533,8.533,8.533h494.933c4.713,0,8.533-3.82,8.533-8.533
			S508.187,495.945,503.474,495.945z M332.006,222.879l148.581,273.067h-70.98l15.359-20.479c2.828-3.769,2.065-9.118-1.704-11.946
			c-3.769-2.828-9.118-2.065-11.946,1.704l-10.242,13.656v-25.602c0-4.713-3.821-8.533-8.533-8.533s-8.533,3.82-8.533,8.533v25.602
			l-10.242-13.656c-2.828-3.769-8.176-4.532-11.946-1.704c-3.769,2.828-4.532,8.177-1.704,11.946l15.359,20.479h-46.064
			L184.849,222.879H332.006z M310.102,495.945h-54.095l15.359-20.479c2.828-3.769,2.065-9.118-1.704-11.946
			c-3.769-2.828-9.118-2.065-11.946,1.704l-10.242,13.656v-25.602c0-4.713-3.821-8.533-8.533-8.533c-4.713,0-8.533,3.82-8.533,8.533
			v25.602l-10.242-13.656c-2.828-3.769-8.176-4.532-11.946-1.704c-3.769,2.828-4.532,8.177-1.704,11.946l15.359,20.479h-42.668
			V248.701L310.102,495.945z M162.141,248.701v247.244h-42.668l15.359-20.479c2.828-3.769,2.065-9.118-1.704-11.946
			c-3.769-2.828-9.118-2.065-11.946,1.704l-10.242,13.656v-25.602c0-4.713-3.821-8.533-8.533-8.533c-4.713,0-8.533,3.82-8.533,8.533
			v25.602l-10.242-13.656c-2.828-3.769-8.176-4.532-11.946-1.704c-3.769,2.828-4.532,8.177-1.704,11.946l15.359,20.479H31.247
			L162.141,248.701z"/>
		<path d="M375.474,385.012c3.013,0.001,5.802-1.586,7.34-4.177c1.538-2.591,1.595-5.8,0.151-8.444l-51.2-93.867
			c-1.494-2.742-4.369-4.448-7.492-4.446h-68.267c-3.013-0.001-5.803,1.586-7.34,4.177c-1.538,2.591-1.595,5.8-0.151,8.444
			l51.2,93.867c1.494,2.742,4.369,4.448,7.492,4.446H375.474z M270.383,291.145h48.825l41.892,76.8h-48.825L270.383,291.145z"/>
		<path d="M426.674,35.145c-11.412-0.026-22.71,2.268-33.208,6.741c-0.378,0.216-0.737,0.463-1.075,0.737
			c-0.577,0.304-1.117,0.674-1.608,1.103c-0.494,0.55-0.913,1.164-1.246,1.824c-0.218,0.277-0.417,0.569-0.596,0.873l-0.014,0.068
			c-0.382,0.957-0.587,1.975-0.605,3.005c-0.003,0.085-0.05,0.171-0.049,0.256c0,0.115,0.063,0.228,0.068,0.343
			c0.028,1.003,0.233,1.993,0.605,2.924l0.012,0.058c0.169,0.282,0.355,0.553,0.557,0.812c0.342,0.682,0.775,1.314,1.289,1.879
			c0.546,0.487,1.153,0.9,1.807,1.229c0.283,0.221,0.58,0.423,0.89,0.605c25.278,10.669,41.708,35.438,41.708,62.875
			s-16.431,52.206-41.708,62.875c-0.31,0.181-0.607,0.383-0.89,0.605c-1.385,0.611-2.49,1.72-3.095,3.108
			c-0.202,0.259-0.388,0.53-0.557,0.812l-0.012,0.058c-0.372,0.932-0.577,1.922-0.605,2.924c-0.005,0.115-0.068,0.229-0.068,0.343
			c-0.001,0.085,0.047,0.171,0.049,0.256c0.018,1.03,0.223,2.048,0.605,3.005l0.014,0.068c0.389,0.893,0.931,1.712,1.6,2.421
			c0.169,0.185,0.372,0.323,0.558,0.493c0.589,0.541,1.251,0.996,1.968,1.35c0.148,0.073,0.244,0.208,0.398,0.273
			c10.498,4.474,21.796,6.768,33.208,6.743c47.128,0,85.333-38.205,85.333-85.333S473.803,35.145,426.674,35.145z M426.674,188.745
			c-2.715-0.016-5.427-0.192-8.121-0.529c21.237-16.045,33.721-41.121,33.721-67.738s-12.483-51.693-33.72-67.738
			c25.178-3.025,49.957,8.16,64.343,29.043c14.386,20.884,16.006,48.022,4.207,70.469
			C475.306,174.699,452.033,188.753,426.674,188.745z"/>
		<path d="M34.141,146.079h179.2c17.771-0.002,32.567-13.637,34.019-31.348c1.452-17.711-10.928-33.574-28.461-36.469
			c6.83-32.347-12.092-64.575-43.667-74.373s-65.417,6.055-78.1,36.586C83.764,26.982,63.567,22.906,46.011,30.158
			S17.023,54.551,17.074,73.545c0.004,2.829,0.277,5.652,0.817,8.429c-13.739,7.429-20.676,23.24-16.838,38.38
			S18.523,146.092,34.141,146.079z M30.183,95.408c2.386-0.572,4.411-2.143,5.558-4.312s1.305-4.727,0.434-7.021
			c-3.936-10.263-1.891-21.861,5.318-30.159s18.407-11.944,29.12-9.48c10.713,2.463,19.193,10.634,22.054,21.248
			c1.119,4.075,5.052,6.717,9.248,6.212c4.196-0.505,7.39-4.004,7.51-8.228c0.542-18.81,12.275-35.475,29.8-42.329
			c17.526-6.854,37.451-2.569,50.61,10.883c13.159,13.452,17.004,33.467,9.765,50.837c-1.098,2.634-0.807,5.642,0.775,8.017
			c1.582,2.375,4.246,3.802,7.1,3.804h5.867c9.426,0,17.067,7.641,17.067,17.067s-7.641,17.067-17.067,17.067h-179.2
			c-8.649,0.018-15.938-6.449-16.95-15.039C16.179,105.384,21.766,97.4,30.183,95.408z"/>
	</g>
</g>
<g>
</g>
<g>
</g>
<g>
</g>
<g>
</g>
<g>
</g>
<g>
</g>
<g>
</g>
<g>
</g>
<g>
</g>
<g>
</g>
<g>
</g>
<g>
</g>
<g>
</g>
<g>
</g>
<g>
</g>
</svg>
